<svg width="238" height="61" viewBox="0 0 238 61" fill="none" xmlns="http://www.w3.org/2000/svg">
<path d="M8.3125 34.8438L32.7656 44.7266V52.3828L0.8125 37.5781V31.875L32.7656 17.1094V24.7656L8.3125 34.8438Z" fill="black"/>
<path d="M51.3984 22.8516C54.6016 18.9193 58.7682 16.9531 63.8984 16.9531C72.8307 16.9531 77.3359 21.9922 77.4141 32.0703V60H70.1875V32.0312C70.1615 28.9844 69.4583 26.7318 68.0781 25.2734C66.724 23.8151 64.6016 23.0859 61.7109 23.0859C59.3672 23.0859 57.3099 23.7109 55.5391 24.9609C53.7682 26.2109 52.388 27.8516 51.3984 29.8828V60H44.1719V0H51.3984V22.8516Z" fill="black"/>
<path d="M98.0391 7.5V17.7344H105.93V23.3203H98.0391V49.5312C98.0391 51.224 98.3906 52.5 99.0938 53.3594C99.7969 54.1927 100.995 54.6094 102.688 54.6094C103.521 54.6094 104.667 54.4531 106.125 54.1406V60C104.224 60.5208 102.375 60.7812 100.578 60.7812C97.349 60.7812 94.9141 59.8047 93.2734 57.8516C91.6328 55.8984 90.8125 53.125 90.8125 49.5312V23.3203H83.1172V17.7344H90.8125V7.5H98.0391Z" fill="black"/>
<path d="M121.203 17.7344L121.398 22.4219C124.497 18.776 128.677 16.9531 133.938 16.9531C139.849 16.9531 143.872 19.2188 146.008 23.75C147.414 21.7188 149.237 20.0781 151.477 18.8281C153.742 17.5781 156.411 16.9531 159.484 16.9531C168.755 16.9531 173.469 21.862 173.625 31.6797V60H166.398V32.1094C166.398 29.0885 165.708 26.8359 164.328 25.3516C162.948 23.8411 160.63 23.0859 157.375 23.0859C154.693 23.0859 152.466 23.8932 150.695 25.5078C148.924 27.0964 147.896 29.2448 147.609 31.9531V60H140.344V32.3047C140.344 26.1589 137.336 23.0859 131.32 23.0859C126.581 23.0859 123.339 25.1042 121.594 29.1406V60H114.367V17.7344H121.203Z" fill="black"/>
<path d="M192.414 60H185.188V0H192.414V60Z" fill="black"/>
<path d="M229.602 34.6094L203.781 24.4922V17.0703L237.141 31.8359V37.5391L203.781 52.3438V44.8438L229.602 34.6094Z" fill="black"/>
</svg>
